# xmcd
#
# Track frame offsets: 
#        150
#        12243
#        26148
#        39730
#        56981
#        74302
#        96662
#        111531
#        122035
#        135375
#        146992
#        160010
#        177577
#        195373
#        214531
#        228804
#        240533
#        257876
#        269742
#        288008
#
# Disc length: 4039 seconds
#
# Revision: 0
# Processed by: cddbd v1.5.2PL0 Copyright (c) Steve Scherf et al.
# Submitted via: ExactAudioCopy v1.3
#
DISCID=330fc514
DTITLE=Various Artist - 100 Hits Country
DYEAR=1900
DGENRE=Country
TTITLE0=Elvis Presley - I Love You Because
TTITLE1=John Hartford - Gentle On My Mind
TTITLE2=John Denver - Annie's Song
TTITLE3=Gram Parsons - Hearts On Fire
TTITLE4=Dr. Hook - Sylvia's Mother
TTITLE5=Guy Clark - L.A. Freeway
TTITLE6=George Jones - He Stopped Loving Her Today
TTITLE7=Jim Reeves - He'll Have To Go
TTITLE8=Charlie Rich - Behind Closed Doors
TTITLE9=Porter Wagoner - The Last Thing On My Mind
TTITLE10=Don Williams - True Love
TTITLE11=Linda Ronstadt - Blue Bayou
TTITLE12=Randy Travis - It's Just A Matter Of Time
TTITLE13=Lonestar - I'm Already There
TTITLE14=Mandy Barnett - Three Days
TTITLE15=Glen Campbell - I Love How You Love Me
TTITLE16=Charlie Landsborough - Fields Of Gold
TTITLE17=Martina McBride - My Baby Loves Me
TTITLE18=John Michael Montgomery - I Love The Way You Love Me
TTITLE19=Mary Chapin Carpenter - Passionate Kisses
EXTD=
EXTT0=
EXTT1=
EXTT2=
EXTT3=
EXTT4=
EXTT5=
EXTT6=
EXTT7=
EXTT8=
EXTT9=
EXTT10=
EXTT11=
EXTT12=
EXTT13=
EXTT14=
EXTT15=
EXTT16=
EXTT17=
EXTT18=
EXTT19=
PLAYORDER=
